<svg width="1920" height="1080" viewBox="0 0 1920 1080" fill="none" xmlns="http://www.w3.org/2000/svg">
  <defs>
    <linearGradient id="sky" x1="960" y1="0" x2="960" y2="1080" gradientUnits="userSpaceOnUse">
      <stop stop-color="#A4B3C6"/>
      <stop offset="0.45" stop-color="#4D5B71"/>
      <stop offset="1" stop-color="#10131A"/>
    </linearGradient>
    <linearGradient id="fog" x1="0" y1="420" x2="0" y2="920" gradientUnits="userSpaceOnUse">
      <stop stop-color="#E7EBEF" stop-opacity="0.35"/>
      <stop offset="1" stop-color="#12151B" stop-opacity="0"/>
    </linearGradient>
    <linearGradient id="hillA" x1="0" y1="250" x2="920" y2="1080" gradientUnits="userSpaceOnUse">
      <stop stop-color="#27313B"/>
      <stop offset="1" stop-color="#0D1118"/>
    </linearGradient>
    <linearGradient id="hillB" x1="1920" y1="180" x2="1020" y2="980" gradientUnits="userSpaceOnUse">
      <stop stop-color="#2C333F"/>
      <stop offset="1" stop-color="#0A0E15"/>
    </linearGradient>
    <linearGradient id="grass" x1="1000" y1="400" x2="1000" y2="980" gradientUnits="userSpaceOnUse">
      <stop stop-color="#324F3A"/>
      <stop offset="1" stop-color="#11181B"/>
    </linearGradient>
    <filter id="blurFog" x="420" y="360" width="980" height="340" filterUnits="userSpaceOnUse" color-interpolation-filters="sRGB">
      <feGaussianBlur stdDeviation="45"/>
    </filter>
  </defs>

  <rect width="1920" height="1080" fill="url(#sky)"/>

  <path d="M0 360C180 250 330 220 580 280L710 320C430 470 280 620 0 910V360Z" fill="url(#hillA)"/>
  <path d="M1920 260C1690 190 1490 210 1200 390L1090 460C1380 520 1640 700 1920 980V260Z" fill="url(#hillB)"/>

  <path d="M540 620C760 500 1000 470 1250 560C1370 600 1480 700 1540 860L320 980L220 900C320 780 420 700 540 620Z" fill="url(#grass)"/>

  <g filter="url(#blurFog)">
    <ellipse cx="940" cy="500" rx="360" ry="100" fill="#DDE2E8" fill-opacity="0.42"/>
    <ellipse cx="1020" cy="530" rx="320" ry="82" fill="#F2F4F7" fill-opacity="0.24"/>
  </g>

  <rect x="860" y="560" width="620" height="70" rx="10" fill="#171C24"/>
  <rect x="890" y="480" width="530" height="95" rx="8" fill="#F2F4F6"/>
  <rect x="920" y="510" width="250" height="62" rx="4" fill="#1E232B"/>
  <rect x="1188" y="510" width="210" height="62" rx="4" fill="#20262E"/>

  <rect x="720" y="650" width="680" height="88" rx="10" fill="#151A22"/>
  <rect x="760" y="590" width="630" height="72" rx="8" fill="#EEF1F4"/>
  <rect x="786" y="611" width="280" height="50" rx="4" fill="#20262E"/>
  <rect x="1084" y="611" width="280" height="50" rx="4" fill="#232A32"/>

  <path d="M1420 700C1530 660 1600 650 1710 660" stroke="#E7ECEF" stroke-opacity="0.6" stroke-width="8" stroke-linecap="round"/>
  <rect y="420" width="1920" height="520" fill="url(#fog)"/>
</svg>
